<svg width="78" height="90" viewBox="0 0 78 90" fill="none" xmlns="http://www.w3.org/2000/svg">
<path d="M75.7 27.1L65.4 16.1C64.1 14.7 62.2 13.9 60.3 13.9H40V7.90002C40 4.00002 36.9 0.900024 33 0.900024H30C26.1 0.900024 23 4.00002 23 7.90002V13.9H7.40002C3.50002 13.9 0.400024 17 0.400024 20.9V42.9C0.500024 46.7 3.60002 49.8 7.40002 49.9H23V82.1C23 86 26.1 89.1 30 89.1H33C36.9 89.1 40 86 40 82.1V49.9H60.3C62.2 49.9 64.1 49.1 65.4 47.7L75.7 36.7C78.2 34 78.2 29.8 75.7 27.1ZM27 7.90002C26.9 6.30002 28.2 5.00002 29.8 4.90002C29.9 4.90002 29.9 4.90002 30 4.90002H33C34.7 4.90002 36 6.20002 36 7.90002V13.9H27V7.90002ZM36 82.1C36 83.8 34.7 85.1 33 85.1H30C28.4 85.2 27.1 83.9 27 82.3C27 82.2 27 82.2 27 82.1V49.9H36V82.1ZM72.8 33.9L62.4 44.9C61.9 45.5 61.1 45.9 60.3 45.9H7.40002C5.80002 45.8 4.50002 44.5 4.40002 42.9V20.9C4.40002 19.2 5.70002 17.9 7.40002 17.9H60.3C61.1 17.9 61.9 18.2 62.4 18.8L72.8 29.8C73.8 31 73.8 32.7 72.8 33.9Z" fill="black"/>
</svg>
