<svg width="24" height="24" viewBox="0 0 24 24" fill="none" xmlns="http://www.w3.org/2000/svg">
<path d="M12.3805 16.4779L8.19513 12.2926L17.4439 12.2926V11.7072L8.19513 11.7072L12.3805 7.52184L11.9707 7.11209L7.08293 11.9999L11.9707 16.8877L12.3805 16.4779Z" fill="black"/>
<path d="M12 24C18.6146 24 24 18.6146 24 12C24 5.38537 18.6146 8.9407e-07 12 8.9407e-07C5.38537 8.9407e-07 8.9407e-07 5.38537 8.9407e-07 12C8.9407e-07 18.6146 5.38537 24 12 24ZM12 0.585367C18.2927 0.585367 23.4146 5.70732 23.4146 12C23.4146 18.2927 18.2927 23.4146 12 23.4146C5.70732 23.4146 0.585367 18.2927 0.585367 12C0.585367 5.70732 5.70732 0.585367 12 0.585367Z" fill="black"/>
</svg>
