<svg width="80" height="72" viewBox="0 0 80 72" fill="none" xmlns="http://www.w3.org/2000/svg">
<path d="M77.5 13.17H62V2.67004C62 2.13961 61.7893 1.6309 61.4142 1.25583C61.0391 0.880758 60.5304 0.670044 60 0.670044H20C19.4696 0.670044 18.9609 0.880758 18.5858 1.25583C18.2107 1.6309 18 2.13961 18 2.67004V13.17H2.5C1.96957 13.17 1.46086 13.3808 1.08579 13.7558C0.710714 14.1309 0.5 14.6396 0.5 15.17V69.33C0.5 69.8605 0.710714 70.3692 1.08579 70.7443C1.46086 71.1193 1.96957 71.33 2.5 71.33H77.5C78.0304 71.33 78.5391 71.1193 78.9142 70.7443C79.2893 70.3692 79.5 69.8605 79.5 69.33V15.17C79.5 14.6396 79.2893 14.1309 78.9142 13.7558C78.5391 13.3808 78.0304 13.17 77.5 13.17ZM4.5 17.17H18V67.33H4.5V17.17ZM22 15.17V4.67004H58V67.33H49.61V53.73H52.31C52.8404 53.73 53.3491 53.5193 53.7242 53.1443C54.0993 52.7692 54.31 52.2605 54.31 51.73V43.48C54.31 42.9496 54.0993 42.4409 53.7242 42.0658C53.3491 41.6908 52.8404 41.48 52.31 41.48H27.69C27.1596 41.48 26.6509 41.6908 26.2758 42.0658C25.9007 42.4409 25.69 42.9496 25.69 43.48V51.73C25.69 52.2605 25.9007 52.7692 26.2758 53.1443C26.6509 53.5193 27.1596 53.73 27.69 53.73H30.39V67.33H22V15.17ZM32.39 49.73H29.69V45.48H50.31V49.73H32.39ZM34.39 53.73H38V67.33H34.39V53.73ZM42 67.33V53.73H45.61V67.33H42ZM75.5 67.33H62V17.17H75.5V67.33Z" fill="black"/>
</svg>
