<svg width="20" height="20" viewBox="0 0 20 20" fill="none" xmlns="http://www.w3.org/2000/svg">
<path d="M10 0C4.48889 0 0 4.48889 0 10C0 15.5111 4.48889 20 10 20C15.5111 20 20 15.5111 20 10C20 4.48889 15.5111 0 10 0ZM10 18.6667C5.2 18.6667 1.33333 14.8 1.33333 10C1.33333 5.2 5.2 1.33333 10 1.33333C14.8 1.33333 18.6667 5.2 18.6667 10C18.6667 14.8 14.8 18.6667 10 18.6667Z" fill="#333333"/>
<path d="M16.2222 9.33331H10.6666V3.77775C10.6666 3.4222 10.3555 3.11108 9.99998 3.11108C9.64442 3.11108 9.33331 3.4222 9.33331 3.77775V9.99997C9.33331 10.3555 9.64442 10.6666 9.99998 10.6666H16.2222C16.5778 10.6666 16.8889 10.3555 16.8889 9.99997C16.8889 9.64442 16.5778 9.33331 16.2222 9.33331Z" fill="#333333"/>
</svg>
