<svg width="20" height="29" viewBox="0 0 20 29" fill="none" xmlns="http://www.w3.org/2000/svg">
<path d="M10 0C4.48611 0 0 4.48577 0 9.99966C0 15.3566 9.20478 27.5512 9.59665 28.0673C9.69184 28.1932 9.84271 28.2681 10 28.2681C10.1583 28.2681 10.3095 28.1925 10.403 28.0676C10.7949 27.5512 20 15.3566 20 9.99966C20 4.48577 15.5139 0 10 0ZM10 26.9123C8.28636 24.5772 1.01259 14.4051 1.01259 9.99966C1.01259 5.04405 5.04438 1.01259 10 1.01259C14.956 1.01259 18.9874 5.04405 18.9874 9.99966C18.9874 14.4054 11.7136 24.5772 10 26.9123Z" fill="#333333"/>
<path d="M10 4.55664C6.9987 4.55664 4.55734 6.99799 4.55734 9.99931C4.55734 13.0006 6.9987 15.442 10 15.442C13.0013 15.442 15.4427 13.0006 15.4427 9.99931C15.4427 6.99799 13.0013 4.55664 10 4.55664ZM10 14.4297C7.55731 14.4297 5.56993 12.4424 5.56993 9.99965C5.56993 7.55694 7.55731 5.56957 10 5.56957C12.4427 5.56957 14.4301 7.55694 14.4301 9.99965C14.4301 12.4424 12.4427 14.4297 10 14.4297Z" fill="#333333"/>
</svg>
