<svg width="24" height="24" viewBox="0 0 24 24" fill="none" xmlns="http://www.w3.org/2000/svg">
<path d="M11.6195 7.52206L15.8049 11.7074H6.55609V12.2928H15.8049L11.6195 16.4782L12.0293 16.8879L16.9171 12.0001L12.0293 7.1123L11.6195 7.52206Z" fill="black"/>
<path d="M12 0C5.38537 0 0 5.38537 0 12C0 18.6146 5.38537 24 12 24C18.6146 24 24 18.6146 24 12C24 5.38537 18.6146 0 12 0ZM12 23.4146C5.70732 23.4146 0.585366 18.2927 0.585366 12C0.585366 5.70732 5.70732 0.585366 12 0.585366C18.2927 0.585366 23.4146 5.70732 23.4146 12C23.4146 18.2927 18.2927 23.4146 12 23.4146Z" fill="black"/>
</svg>
